<?xml version="1.0" encoding="UTF-8"?>
<svg id="Layer_4" data-name="Layer 4" xmlns="http://www.w3.org/2000/svg" viewBox="0 0 1001.05 1004.18">
  <defs>
    <style>
      .cls-1 {
        fill: none;
        stroke: #fff;
        stroke-miterlimit: 10;
        stroke-width: 100px;
      }
    </style>
  </defs>
  <path class="cls-1" d="m287.66,949l-223.55-99.78c-7.3,0-13.22-9.45-13.22-21.11V171.89c0-11.66,5.92-21.11,13.22-21.11l223.55-99.78c7.3,0,13.22,9.45,13.22,21.11v855.78c0,11.66-5.92,21.11-13.22,21.11Z"/>
  <path class="cls-1" d="m619.27,949l-111.78-49.89c-3.65,0-6.61-9.45-6.61-21.11V122c0-11.66,2.96-21.11,6.61-21.11l111.78-49.89c3.65,0,6.61,9.45,6.61,21.11v855.78c0,11.66-2.96,21.11-6.61,21.11Z"/>
  <path class="cls-1" d="m944.27,949l-111.78-49.89c-3.65,0-6.61-9.45-6.61-21.11V122c0-11.66,2.96-21.11,6.61-21.11l111.78-49.89c3.65,0,6.61,9.45,6.61,21.11v855.78c0,11.66-2.96,21.11-6.61,21.11Z"/>
</svg>